<?xml version="1.0" encoding="UTF-8" standalone="no"?>
<!DOCTYPE svg PUBLIC "-//W3C//DTD SVG 1.1//EN"
 "http://www.w3.org/Graphics/SVG/1.1/DTD/svg11.dtd">
<!-- Generated by graphviz version 13.1.0 (0)
 -->
<!-- Title: dependency tree example Pages: 1 -->
<svg width="587pt" height="266pt"
 viewBox="0.00 0.00 587.00 266.00" xmlns="http://www.w3.org/2000/svg" xmlns:xlink="http://www.w3.org/1999/xlink">
<g id="graph0" class="graph" transform="scale(1 1) rotate(0) translate(18 248)">
<title>dependency tree example</title>
<polygon fill="#e5e5e5" stroke="none" points="-18,18 -18,-248 569.25,-248 569.25,18 -18,18"/>
<!-- Leaf_1 -->
<g id="node1" class="node">
<title>Leaf_1</title>
<polygon fill="white" stroke="none" points="549,-230 447,-230 447,-186 549,-186 549,-230"/>
<polyline fill="none" stroke="#bfbfbf" points="450,-207 546,-207"/>
<text xml:space="preserve" text-anchor="start" x="478.12" y="-212.7" font-family="Inter" font-size="14.00" fill="#1a1a1a">Leaf_1</text>
<text xml:space="preserve" text-anchor="start" x="450" y="-193.7" font-family="Inter" font-size="14.00" fill="#1a1a1a">value:</text>
<text xml:space="preserve" text-anchor="start" x="489" y="-193.7" font-family="Inter" font-size="14.00" fill="#1a1a1a"> </text>
<text xml:space="preserve" text-anchor="start" x="492.75" y="-193.7" font-family="Inter" font-size="14.00" fill="#1a1a1a">&quot;Leaf_1&quot;</text>
</g>
<!-- Leaf_2 -->
<g id="node2" class="node">
<title>Leaf_2</title>
<polygon fill="white" stroke="none" points="551.25,-168 444.75,-168 444.75,-124 551.25,-124 551.25,-168"/>
<polyline fill="none" stroke="#bfbfbf" points="447.75,-145 548.25,-145"/>
<text xml:space="preserve" text-anchor="start" x="475.88" y="-150.7" font-family="Inter" font-size="14.00" fill="#1a1a1a">Leaf_2</text>
<text xml:space="preserve" text-anchor="start" x="447.75" y="-131.7" font-family="Inter" font-size="14.00" fill="#1a1a1a">value:</text>
<text xml:space="preserve" text-anchor="start" x="486.75" y="-131.7" font-family="Inter" font-size="14.00" fill="#1a1a1a"> </text>
<text xml:space="preserve" text-anchor="start" x="490.5" y="-131.7" font-family="Inter" font-size="14.00" fill="#1a1a1a">&quot;Leaf_2&quot;</text>
</g>
<!-- Leaf_3 -->
<g id="node3" class="node">
<title>Leaf_3</title>
<polygon fill="white" stroke="none" points="551.25,-106 444.75,-106 444.75,-62 551.25,-62 551.25,-106"/>
<polyline fill="none" stroke="#bfbfbf" points="447.75,-83 548.25,-83"/>
<text xml:space="preserve" text-anchor="start" x="475.88" y="-88.7" font-family="Inter" font-size="14.00" fill="#1a1a1a">Leaf_3</text>
<text xml:space="preserve" text-anchor="start" x="447.75" y="-69.7" font-family="Inter" font-size="14.00" fill="#1a1a1a">value:</text>
<text xml:space="preserve" text-anchor="start" x="486.75" y="-69.7" font-family="Inter" font-size="14.00" fill="#1a1a1a"> </text>
<text xml:space="preserve" text-anchor="start" x="490.5" y="-69.7" font-family="Inter" font-size="14.00" fill="#1a1a1a">&quot;Leaf_3&quot;</text>
</g>
<!-- Leaf_4 -->
<g id="node4" class="node">
<title>Leaf_4</title>
<polygon fill="white" stroke="none" points="550.88,-44 445.12,-44 445.12,0 550.88,0 550.88,-44"/>
<polyline fill="none" stroke="#bfbfbf" points="448.12,-21 547.88,-21"/>
<text xml:space="preserve" text-anchor="start" x="476.25" y="-26.7" font-family="Inter" font-size="14.00" fill="#1a1a1a">Leaf_4</text>
<text xml:space="preserve" text-anchor="start" x="448.12" y="-7.7" font-family="Inter" font-size="14.00" fill="#1a1a1a">value:</text>
<text xml:space="preserve" text-anchor="start" x="487.12" y="-7.7" font-family="Inter" font-size="14.00" fill="#1a1a1a"> </text>
<text xml:space="preserve" text-anchor="start" x="490.88" y="-7.7" font-family="Inter" font-size="14.00" fill="#1a1a1a">&quot;Leaf_4&quot;</text>
</g>
<!-- Branch_1 -->
<g id="node5" class="node">
<title>Branch_1</title>
<polygon fill="white" stroke="none" points="407.25,-168 249,-168 249,-124 407.25,-124 407.25,-168"/>
<polyline fill="none" stroke="#bfbfbf" points="252,-145 404.25,-145"/>
<text xml:space="preserve" text-anchor="start" x="299.62" y="-150.7" font-family="Inter" font-size="14.00" fill="#1a1a1a">Branch_1</text>
<text xml:space="preserve" text-anchor="start" x="252" y="-131.7" font-family="Inter" font-size="14.00" fill="#1a1a1a">leaves:</text>
<text xml:space="preserve" text-anchor="start" x="298.5" y="-131.7" font-family="Inter" font-size="14.00" fill="#1a1a1a"> </text>
<text xml:space="preserve" text-anchor="start" x="302.25" y="-131.7" font-family="Inter" font-size="14.00" fill="#1a1a1a">[Leaf_1, Leaf_2]</text>
</g>
<!-- Branch_1&#45;&gt;Leaf_1 -->
<g id="edge1" class="edge">
<title>Branch_1&#45;&gt;Leaf_1</title>
<path fill="none" stroke="#404040" d="M328.25,-167.68C328.25,-185.56 328.25,-208 328.25,-208 328.25,-208 440.85,-208 440.85,-208"/>
<polygon fill="#404040" stroke="#404040" points="445.85,-208 440.85,-210.25 444.57,-208 440.85,-208 440.85,-208 440.85,-208 444.57,-208 440.85,-205.75 445.85,-208"/>
</g>
<!-- Branch_1&#45;&gt;Leaf_2 -->
<g id="edge2" class="edge">
<title>Branch_1&#45;&gt;Leaf_2</title>
<path fill="none" stroke="#404040" d="M407.09,-146C407.09,-146 438.72,-146 438.72,-146"/>
<polygon fill="#404040" stroke="#404040" points="443.72,-146 438.72,-148.25 442.43,-146 438.72,-146 438.72,-146 438.72,-146 442.43,-146 438.72,-143.75 443.72,-146"/>
</g>
<!-- Branch_2 -->
<g id="node6" class="node">
<title>Branch_2</title>
<polygon fill="white" stroke="none" points="408.75,-106 247.5,-106 247.5,-62 408.75,-62 408.75,-106"/>
<polyline fill="none" stroke="#bfbfbf" points="250.5,-83 405.75,-83"/>
<text xml:space="preserve" text-anchor="start" x="297.38" y="-88.7" font-family="Inter" font-size="14.00" fill="#1a1a1a">Branch_2</text>
<text xml:space="preserve" text-anchor="start" x="250.5" y="-69.7" font-family="Inter" font-size="14.00" fill="#1a1a1a">leaves:</text>
<text xml:space="preserve" text-anchor="start" x="297" y="-69.7" font-family="Inter" font-size="14.00" fill="#1a1a1a"> </text>
<text xml:space="preserve" text-anchor="start" x="300.75" y="-69.7" font-family="Inter" font-size="14.00" fill="#1a1a1a">[Leaf_3, Leaf_4]</text>
</g>
<!-- Branch_2&#45;&gt;Leaf_3 -->
<g id="edge3" class="edge">
<title>Branch_2&#45;&gt;Leaf_3</title>
<path fill="none" stroke="#404040" d="M408.59,-84C408.59,-84 438.75,-84 438.75,-84"/>
<polygon fill="#404040" stroke="#404040" points="443.75,-84 438.75,-86.25 442.46,-84 438.75,-84 438.75,-84 438.75,-84 442.46,-84 438.75,-81.75 443.75,-84"/>
</g>
<!-- Branch_2&#45;&gt;Leaf_4 -->
<g id="edge4" class="edge">
<title>Branch_2&#45;&gt;Leaf_4</title>
<path fill="none" stroke="#404040" d="M328.25,-62.32C328.25,-44.44 328.25,-22 328.25,-22 328.25,-22 439,-22 439,-22"/>
<polygon fill="#404040" stroke="#404040" points="444,-22 439,-24.25 442.72,-22 439,-22 439,-22 439,-22 442.72,-22 439,-19.75 444,-22"/>
</g>
<!-- Root_0 -->
<g id="node7" class="node">
<title>Root_0</title>
<polygon fill="white" stroke="none" points="211.5,-137 0,-137 0,-93 211.5,-93 211.5,-137"/>
<polyline fill="none" stroke="#bfbfbf" points="3,-114 208.5,-114"/>
<text xml:space="preserve" text-anchor="start" x="83.25" y="-119.7" font-family="Inter" font-size="14.00" fill="#1a1a1a">Root_0</text>
<text xml:space="preserve" text-anchor="start" x="3" y="-100.7" font-family="Inter" font-size="14.00" fill="#1a1a1a">branches:</text>
<text xml:space="preserve" text-anchor="start" x="68.25" y="-100.7" font-family="Inter" font-size="14.00" fill="#1a1a1a"> </text>
<text xml:space="preserve" text-anchor="start" x="72" y="-100.7" font-family="Inter" font-size="14.00" fill="#1a1a1a">[Branch_1, Branch_2]</text>
</g>
<!-- Root_0&#45;&gt;Branch_1 -->
<g id="edge5" class="edge">
<title>Root_0&#45;&gt;Branch_1</title>
<path fill="none" stroke="#404040" d="M211.4,-130.5C211.4,-130.5 242.8,-130.5 242.8,-130.5"/>
<polygon fill="#404040" stroke="#404040" points="247.8,-130.5 242.8,-132.75 246.52,-130.5 242.8,-130.5 242.8,-130.5 242.8,-130.5 246.52,-130.5 242.8,-128.25 247.8,-130.5"/>
</g>
<!-- Root_0&#45;&gt;Branch_2 -->
<g id="edge6" class="edge">
<title>Root_0&#45;&gt;Branch_2</title>
<path fill="none" stroke="#404040" d="M211.4,-99.5C211.4,-99.5 241.5,-99.5 241.5,-99.5"/>
<polygon fill="#404040" stroke="#404040" points="246.5,-99.5 241.5,-101.75 245.22,-99.5 241.5,-99.5 241.5,-99.5 241.5,-99.5 245.22,-99.5 241.5,-97.25 246.5,-99.5"/>
</g>
</g>
</svg>
