<?xml version="1.0" encoding="UTF-8" standalone="no"?>
<!DOCTYPE svg PUBLIC "-//W3C//DTD SVG 1.1//EN"
 "http://www.w3.org/Graphics/SVG/1.1/DTD/svg11.dtd">
<!-- Generated by graphviz version 13.1.0 (0)
 -->
<!-- Title: dependency tree example Pages: 1 -->
<svg width="552pt" height="266pt"
 viewBox="0.00 0.00 552.00 266.00" xmlns="http://www.w3.org/2000/svg" xmlns:xlink="http://www.w3.org/1999/xlink">
<g id="graph0" class="graph" transform="scale(1 1) rotate(0) translate(18 248)">
<title>dependency tree example</title>
<polygon fill="#e5e5e5" stroke="none" points="-18,18 -18,-248 534,-248 534,18 -18,18"/>
<!-- Leaf_1 -->
<g id="node1" class="node">
<title>Leaf_1</title>
<polygon fill="white" stroke="none" points="514.5,-230 418.5,-230 418.5,-186 514.5,-186 514.5,-230"/>
<polyline fill="none" stroke="#bfbfbf" points="421.5,-207 511.5,-207"/>
<text xml:space="preserve" text-anchor="start" x="446.62" y="-212.7" font-family="Inter" font-size="14.00" fill="#1a1a1a">Leaf_1</text>
<text xml:space="preserve" text-anchor="start" x="421.5" y="-193.7" font-family="Inter" font-size="14.00" fill="#1a1a1a">value:</text>
<text xml:space="preserve" text-anchor="start" x="460.5" y="-193.7" font-family="Inter" font-size="14.00" fill="#1a1a1a"> </text>
<text xml:space="preserve" text-anchor="start" x="464.25" y="-194.7" font-family="Inter" font-size="14.00" fill="#1a1a1a">&quot;Leaf</text>
<text xml:space="preserve" text-anchor="start" x="500.25" y="-194.7" font-family="Inter" baseline-shift="sub" font-size="14.00" fill="#1a1a1a">1</text>
<text xml:space="preserve" text-anchor="start" x="504.75" y="-194.7" font-family="Inter" font-size="14.00" fill="#1a1a1a">&quot;</text>
</g>
<!-- Leaf_2 -->
<g id="node2" class="node">
<title>Leaf_2</title>
<polygon fill="white" stroke="none" points="515.62,-168 417.38,-168 417.38,-124 515.62,-124 515.62,-168"/>
<polyline fill="none" stroke="#bfbfbf" points="420.38,-145 512.62,-145"/>
<text xml:space="preserve" text-anchor="start" x="444.38" y="-150.7" font-family="Inter" font-size="14.00" fill="#1a1a1a">Leaf_2</text>
<text xml:space="preserve" text-anchor="start" x="420.38" y="-131.7" font-family="Inter" font-size="14.00" fill="#1a1a1a">value:</text>
<text xml:space="preserve" text-anchor="start" x="459.38" y="-131.7" font-family="Inter" font-size="14.00" fill="#1a1a1a"> </text>
<text xml:space="preserve" text-anchor="start" x="463.12" y="-132.7" font-family="Inter" font-size="14.00" fill="#1a1a1a">&quot;Leaf</text>
<text xml:space="preserve" text-anchor="start" x="499.12" y="-132.7" font-family="Inter" baseline-shift="sub" font-size="14.00" fill="#1a1a1a">2</text>
<text xml:space="preserve" text-anchor="start" x="505.88" y="-132.7" font-family="Inter" font-size="14.00" fill="#1a1a1a">&quot;</text>
</g>
<!-- Leaf_3 -->
<g id="node3" class="node">
<title>Leaf_3</title>
<polygon fill="white" stroke="none" points="516,-106 417,-106 417,-62 516,-62 516,-106"/>
<polyline fill="none" stroke="#bfbfbf" points="420,-83 513,-83"/>
<text xml:space="preserve" text-anchor="start" x="444.38" y="-88.7" font-family="Inter" font-size="14.00" fill="#1a1a1a">Leaf_3</text>
<text xml:space="preserve" text-anchor="start" x="420" y="-69.7" font-family="Inter" font-size="14.00" fill="#1a1a1a">value:</text>
<text xml:space="preserve" text-anchor="start" x="459" y="-69.7" font-family="Inter" font-size="14.00" fill="#1a1a1a"> </text>
<text xml:space="preserve" text-anchor="start" x="462.75" y="-70.7" font-family="Inter" font-size="14.00" fill="#1a1a1a">&quot;Leaf</text>
<text xml:space="preserve" text-anchor="start" x="498.75" y="-70.7" font-family="Inter" baseline-shift="sub" font-size="14.00" fill="#1a1a1a">3</text>
<text xml:space="preserve" text-anchor="start" x="506.25" y="-70.7" font-family="Inter" font-size="14.00" fill="#1a1a1a">&quot;</text>
</g>
<!-- Leaf_4 -->
<g id="node4" class="node">
<title>Leaf_4</title>
<polygon fill="white" stroke="none" points="516,-44 417,-44 417,0 516,0 516,-44"/>
<polyline fill="none" stroke="#bfbfbf" points="420,-21 513,-21"/>
<text xml:space="preserve" text-anchor="start" x="444.75" y="-26.7" font-family="Inter" font-size="14.00" fill="#1a1a1a">Leaf_4</text>
<text xml:space="preserve" text-anchor="start" x="420" y="-7.7" font-family="Inter" font-size="14.00" fill="#1a1a1a">value:</text>
<text xml:space="preserve" text-anchor="start" x="459" y="-7.7" font-family="Inter" font-size="14.00" fill="#1a1a1a"> </text>
<text xml:space="preserve" text-anchor="start" x="462.75" y="-8.7" font-family="Inter" font-size="14.00" fill="#1a1a1a">&quot;Leaf</text>
<text xml:space="preserve" text-anchor="start" x="498.75" y="-8.7" font-family="Inter" baseline-shift="sub" font-size="14.00" fill="#1a1a1a">4</text>
<text xml:space="preserve" text-anchor="start" x="506.25" y="-8.7" font-family="Inter" font-size="14.00" fill="#1a1a1a">&quot;</text>
</g>
<!-- Branch_1 -->
<g id="node5" class="node">
<title>Branch_1</title>
<polygon fill="white" stroke="none" points="379.12,-168 235.12,-168 235.12,-124 379.12,-124 379.12,-168"/>
<polyline fill="none" stroke="#bfbfbf" points="238.12,-145 376.12,-145"/>
<text xml:space="preserve" text-anchor="start" x="278.62" y="-150.7" font-family="Inter" font-size="14.00" fill="#1a1a1a">Branch_1</text>
<text xml:space="preserve" text-anchor="start" x="238.12" y="-131.7" font-family="Inter" font-size="14.00" fill="#1a1a1a">leaves:</text>
<text xml:space="preserve" text-anchor="start" x="284.62" y="-131.7" font-family="Inter" font-size="14.00" fill="#1a1a1a"> </text>
<text xml:space="preserve" text-anchor="start" x="288.38" y="-132.7" font-family="Inter" font-size="14.00" fill="#1a1a1a">[Leaf</text>
<text xml:space="preserve" text-anchor="start" x="322.88" y="-132.7" font-family="Inter" baseline-shift="sub" font-size="14.00" fill="#1a1a1a">1</text>
<text xml:space="preserve" text-anchor="start" x="327.38" y="-132.7" font-family="Inter" font-size="14.00" fill="#1a1a1a">, Leaf</text>
<text xml:space="preserve" text-anchor="start" x="364.12" y="-132.7" font-family="Inter" baseline-shift="sub" font-size="14.00" fill="#1a1a1a">2</text>
<text xml:space="preserve" text-anchor="start" x="370.88" y="-132.7" font-family="Inter" font-size="14.00" fill="#1a1a1a">]</text>
</g>
<!-- Branch_1&#45;&gt;Leaf_1 -->
<g id="edge1" class="edge">
<title>Branch_1&#45;&gt;Leaf_1</title>
<path fill="none" stroke="#404040" d="M307,-167.68C307,-185.56 307,-208 307,-208 307,-208 412.43,-208 412.43,-208"/>
<polygon fill="#404040" stroke="#404040" points="417.43,-208 412.43,-210.25 416.14,-208 412.43,-208 412.43,-208 412.43,-208 416.14,-208 412.43,-205.75 417.43,-208"/>
</g>
<!-- Branch_1&#45;&gt;Leaf_2 -->
<g id="edge2" class="edge">
<title>Branch_1&#45;&gt;Leaf_2</title>
<path fill="none" stroke="#404040" d="M378.89,-146C378.89,-146 411.27,-146 411.27,-146"/>
<polygon fill="#404040" stroke="#404040" points="416.27,-146 411.27,-148.25 414.99,-146 411.27,-146 411.27,-146 411.27,-146 414.99,-146 411.27,-143.75 416.27,-146"/>
</g>
<!-- Branch_2 -->
<g id="node6" class="node">
<title>Branch_2</title>
<polygon fill="white" stroke="none" points="381,-106 233.25,-106 233.25,-62 381,-62 381,-106"/>
<polyline fill="none" stroke="#bfbfbf" points="236.25,-83 378,-83"/>
<text xml:space="preserve" text-anchor="start" x="276.38" y="-88.7" font-family="Inter" font-size="14.00" fill="#1a1a1a">Branch_2</text>
<text xml:space="preserve" text-anchor="start" x="236.25" y="-69.7" font-family="Inter" font-size="14.00" fill="#1a1a1a">leaves:</text>
<text xml:space="preserve" text-anchor="start" x="282.75" y="-69.7" font-family="Inter" font-size="14.00" fill="#1a1a1a"> </text>
<text xml:space="preserve" text-anchor="start" x="286.5" y="-70.7" font-family="Inter" font-size="14.00" fill="#1a1a1a">[Leaf</text>
<text xml:space="preserve" text-anchor="start" x="321" y="-70.7" font-family="Inter" baseline-shift="sub" font-size="14.00" fill="#1a1a1a">3</text>
<text xml:space="preserve" text-anchor="start" x="328.5" y="-70.7" font-family="Inter" font-size="14.00" fill="#1a1a1a">, Leaf</text>
<text xml:space="preserve" text-anchor="start" x="365.25" y="-70.7" font-family="Inter" baseline-shift="sub" font-size="14.00" fill="#1a1a1a">4</text>
<text xml:space="preserve" text-anchor="start" x="372.75" y="-70.7" font-family="Inter" font-size="14.00" fill="#1a1a1a">]</text>
</g>
<!-- Branch_2&#45;&gt;Leaf_3 -->
<g id="edge3" class="edge">
<title>Branch_2&#45;&gt;Leaf_3</title>
<path fill="none" stroke="#404040" d="M380.75,-84C380.75,-84 411.1,-84 411.1,-84"/>
<polygon fill="#404040" stroke="#404040" points="416.1,-84 411.1,-86.25 414.82,-84 411.1,-84 411.1,-84 411.1,-84 414.82,-84 411.1,-81.75 416.1,-84"/>
</g>
<!-- Branch_2&#45;&gt;Leaf_4 -->
<g id="edge4" class="edge">
<title>Branch_2&#45;&gt;Leaf_4</title>
<path fill="none" stroke="#404040" d="M307,-62.32C307,-44.44 307,-22 307,-22 307,-22 411.12,-22 411.12,-22"/>
<polygon fill="#404040" stroke="#404040" points="416.12,-22 411.12,-24.25 414.84,-22 411.12,-22 411.12,-22 411.12,-22 414.84,-22 411.12,-19.75 416.12,-22"/>
</g>
<!-- Root_0 -->
<g id="node7" class="node">
<title>Root_0</title>
<polygon fill="white" stroke="none" points="197.25,-137 0,-137 0,-93 197.25,-93 197.25,-137"/>
<polyline fill="none" stroke="#bfbfbf" points="3,-114 194.25,-114"/>
<text xml:space="preserve" text-anchor="start" x="76.12" y="-119.7" font-family="Inter" font-size="14.00" fill="#1a1a1a">Root_0</text>
<text xml:space="preserve" text-anchor="start" x="3" y="-100.7" font-family="Inter" font-size="14.00" fill="#1a1a1a">branches:</text>
<text xml:space="preserve" text-anchor="start" x="68.25" y="-100.7" font-family="Inter" font-size="14.00" fill="#1a1a1a"> </text>
<text xml:space="preserve" text-anchor="start" x="72" y="-101.7" font-family="Inter" font-size="14.00" fill="#1a1a1a">[Branch</text>
<text xml:space="preserve" text-anchor="start" x="123.75" y="-101.7" font-family="Inter" baseline-shift="sub" font-size="14.00" fill="#1a1a1a">1</text>
<text xml:space="preserve" text-anchor="start" x="128.25" y="-101.7" font-family="Inter" font-size="14.00" fill="#1a1a1a">, Branch</text>
<text xml:space="preserve" text-anchor="start" x="182.25" y="-101.7" font-family="Inter" baseline-shift="sub" font-size="14.00" fill="#1a1a1a">2</text>
<text xml:space="preserve" text-anchor="start" x="189" y="-101.7" font-family="Inter" font-size="14.00" fill="#1a1a1a">]</text>
</g>
<!-- Root_0&#45;&gt;Branch_1 -->
<g id="edge5" class="edge">
<title>Root_0&#45;&gt;Branch_1</title>
<path fill="none" stroke="#404040" d="M197.07,-130.5C197.07,-130.5 229.01,-130.5 229.01,-130.5"/>
<polygon fill="#404040" stroke="#404040" points="234.01,-130.5 229.01,-132.75 232.73,-130.5 229.01,-130.5 229.01,-130.5 229.01,-130.5 232.73,-130.5 229.01,-128.25 234.01,-130.5"/>
</g>
<!-- Root_0&#45;&gt;Branch_2 -->
<g id="edge6" class="edge">
<title>Root_0&#45;&gt;Branch_2</title>
<path fill="none" stroke="#404040" d="M197.07,-99.5C197.07,-99.5 227.19,-99.5 227.19,-99.5"/>
<polygon fill="#404040" stroke="#404040" points="232.19,-99.5 227.19,-101.75 230.91,-99.5 227.19,-99.5 227.19,-99.5 227.19,-99.5 230.91,-99.5 227.19,-97.25 232.19,-99.5"/>
</g>
</g>
</svg>
