<?xml version="1.0" encoding="UTF-8" standalone="no"?>
<!DOCTYPE svg PUBLIC "-//W3C//DTD SVG 1.1//EN"
 "http://www.w3.org/Graphics/SVG/1.1/DTD/svg11.dtd">
<!-- Generated by graphviz version 13.1.0 (0)
 -->
<!-- Title: dependency tree example Pages: 1 -->
<svg width="563pt" height="266pt"
 viewBox="0.00 0.00 563.00 266.00" xmlns="http://www.w3.org/2000/svg" xmlns:xlink="http://www.w3.org/1999/xlink">
<g id="graph0" class="graph" transform="scale(1 1) rotate(0) translate(18 248)">
<title>dependency tree example</title>
<polygon fill="#e5e5e5" stroke="none" points="-18,18 -18,-248 544.5,-248 544.5,18 -18,18"/>
<!-- Leaf_1 -->
<g id="node1" class="node">
<title>Leaf_1</title>
<polygon fill="white" stroke="none" points="525,-230 433.5,-230 433.5,-186 525,-186 525,-230"/>
<polyline fill="none" stroke="#bfbfbf" points="436.5,-207 522,-207"/>
<text xml:space="preserve" text-anchor="start" x="459.38" y="-212.7" font-family="Inter" font-size="14.00" fill="#1a1a1a">Leaf_1</text>
<text xml:space="preserve" text-anchor="start" x="436.5" y="-193.7" font-family="Inter" font-size="14.00" fill="#1a1a1a">value:</text>
<text xml:space="preserve" text-anchor="start" x="475.5" y="-193.7" font-family="Inter" font-size="14.00" fill="#1a1a1a"> </text>
<text xml:space="preserve" text-anchor="start" x="479.25" y="-194.7" font-family="Inter" font-size="14.00" fill="#1a1a1a">&#39;Leaf</text>
<text xml:space="preserve" text-anchor="start" x="513" y="-194.7" font-family="Inter" baseline-shift="sub" font-size="14.00" fill="#1a1a1a">1</text>
<text xml:space="preserve" text-anchor="start" x="517.5" y="-194.7" font-family="Inter" font-size="14.00" fill="#1a1a1a">&#39;</text>
</g>
<!-- Leaf_2 -->
<g id="node2" class="node">
<title>Leaf_2</title>
<polygon fill="white" stroke="none" points="526.12,-168 432.38,-168 432.38,-124 526.12,-124 526.12,-168"/>
<polyline fill="none" stroke="#bfbfbf" points="435.38,-145 523.12,-145"/>
<text xml:space="preserve" text-anchor="start" x="457.12" y="-150.7" font-family="Inter" font-size="14.00" fill="#1a1a1a">Leaf_2</text>
<text xml:space="preserve" text-anchor="start" x="435.38" y="-131.7" font-family="Inter" font-size="14.00" fill="#1a1a1a">value:</text>
<text xml:space="preserve" text-anchor="start" x="474.38" y="-131.7" font-family="Inter" font-size="14.00" fill="#1a1a1a"> </text>
<text xml:space="preserve" text-anchor="start" x="478.12" y="-132.7" font-family="Inter" font-size="14.00" fill="#1a1a1a">&#39;Leaf</text>
<text xml:space="preserve" text-anchor="start" x="511.88" y="-132.7" font-family="Inter" baseline-shift="sub" font-size="14.00" fill="#1a1a1a">2</text>
<text xml:space="preserve" text-anchor="start" x="518.62" y="-132.7" font-family="Inter" font-size="14.00" fill="#1a1a1a">&#39;</text>
</g>
<!-- Leaf_3 -->
<g id="node3" class="node">
<title>Leaf_3</title>
<polygon fill="white" stroke="none" points="526.5,-106 432,-106 432,-62 526.5,-62 526.5,-106"/>
<polyline fill="none" stroke="#bfbfbf" points="435,-83 523.5,-83"/>
<text xml:space="preserve" text-anchor="start" x="457.12" y="-88.7" font-family="Inter" font-size="14.00" fill="#1a1a1a">Leaf_3</text>
<text xml:space="preserve" text-anchor="start" x="435" y="-69.7" font-family="Inter" font-size="14.00" fill="#1a1a1a">value:</text>
<text xml:space="preserve" text-anchor="start" x="474" y="-69.7" font-family="Inter" font-size="14.00" fill="#1a1a1a"> </text>
<text xml:space="preserve" text-anchor="start" x="477.75" y="-70.7" font-family="Inter" font-size="14.00" fill="#1a1a1a">&#39;Leaf</text>
<text xml:space="preserve" text-anchor="start" x="511.5" y="-70.7" font-family="Inter" baseline-shift="sub" font-size="14.00" fill="#1a1a1a">3</text>
<text xml:space="preserve" text-anchor="start" x="519" y="-70.7" font-family="Inter" font-size="14.00" fill="#1a1a1a">&#39;</text>
</g>
<!-- Leaf_4 -->
<g id="node4" class="node">
<title>Leaf_4</title>
<polygon fill="white" stroke="none" points="526.5,-44 432,-44 432,0 526.5,0 526.5,-44"/>
<polyline fill="none" stroke="#bfbfbf" points="435,-21 523.5,-21"/>
<text xml:space="preserve" text-anchor="start" x="457.5" y="-26.7" font-family="Inter" font-size="14.00" fill="#1a1a1a">Leaf_4</text>
<text xml:space="preserve" text-anchor="start" x="435" y="-7.7" font-family="Inter" font-size="14.00" fill="#1a1a1a">value:</text>
<text xml:space="preserve" text-anchor="start" x="474" y="-7.7" font-family="Inter" font-size="14.00" fill="#1a1a1a"> </text>
<text xml:space="preserve" text-anchor="start" x="477.75" y="-8.7" font-family="Inter" font-size="14.00" fill="#1a1a1a">&#39;Leaf</text>
<text xml:space="preserve" text-anchor="start" x="511.5" y="-8.7" font-family="Inter" baseline-shift="sub" font-size="14.00" fill="#1a1a1a">4</text>
<text xml:space="preserve" text-anchor="start" x="519" y="-8.7" font-family="Inter" font-size="14.00" fill="#1a1a1a">&#39;</text>
</g>
<!-- Branch_1 -->
<g id="node5" class="node">
<title>Branch_1</title>
<polygon fill="white" stroke="none" points="394.88,-168 242.62,-168 242.62,-124 394.88,-124 394.88,-168"/>
<polyline fill="none" stroke="#bfbfbf" points="245.62,-145 391.88,-145"/>
<text xml:space="preserve" text-anchor="start" x="290.25" y="-150.7" font-family="Inter" font-size="14.00" fill="#1a1a1a">Branch_1</text>
<text xml:space="preserve" text-anchor="start" x="245.62" y="-131.7" font-family="Inter" font-size="14.00" fill="#1a1a1a">leaves:</text>
<text xml:space="preserve" text-anchor="start" x="292.12" y="-131.7" font-family="Inter" font-size="14.00" fill="#1a1a1a"> </text>
<text xml:space="preserve" text-anchor="start" x="295.88" y="-132.7" font-family="Inter" font-size="14.00" fill="#1a1a1a">[Leaf</text>
<text xml:space="preserve" text-anchor="start" x="330.38" y="-132.7" font-family="Inter" baseline-shift="sub" font-size="14.00" fill="#1a1a1a">1</text>
<text xml:space="preserve" text-anchor="start" x="334.88" y="-132.7" font-family="Inter" font-size="14.00" fill="#1a1a1a">, Leaf_2]</text>
</g>
<!-- Branch_1&#45;&gt;Leaf_1 -->
<g id="edge1" class="edge">
<title>Branch_1&#45;&gt;Leaf_1</title>
<path fill="none" stroke="#404040" d="M318.5,-167.68C318.5,-185.56 318.5,-208 318.5,-208 318.5,-208 427.4,-208 427.4,-208"/>
<polygon fill="#404040" stroke="#404040" points="432.4,-208 427.4,-210.25 431.12,-208 427.4,-208 427.4,-208 427.4,-208 431.12,-208 427.4,-205.75 432.4,-208"/>
</g>
<!-- Branch_1&#45;&gt;Leaf_2 -->
<g id="edge2" class="edge">
<title>Branch_1&#45;&gt;Leaf_2</title>
<path fill="none" stroke="#404040" d="M394.77,-146C394.77,-146 426.53,-146 426.53,-146"/>
<polygon fill="#404040" stroke="#404040" points="431.53,-146 426.53,-148.25 430.25,-146 426.53,-146 426.53,-146 426.53,-146 430.25,-146 426.53,-143.75 431.53,-146"/>
</g>
<!-- Branch_2 -->
<g id="node6" class="node">
<title>Branch_2</title>
<polygon fill="white" stroke="none" points="396,-106 241.5,-106 241.5,-62 396,-62 396,-106"/>
<polyline fill="none" stroke="#bfbfbf" points="244.5,-83 393,-83"/>
<text xml:space="preserve" text-anchor="start" x="288" y="-88.7" font-family="Inter" font-size="14.00" fill="#1a1a1a">Branch_2</text>
<text xml:space="preserve" text-anchor="start" x="244.5" y="-69.7" font-family="Inter" font-size="14.00" fill="#1a1a1a">leaves:</text>
<text xml:space="preserve" text-anchor="start" x="291" y="-69.7" font-family="Inter" font-size="14.00" fill="#1a1a1a"> </text>
<text xml:space="preserve" text-anchor="start" x="294.75" y="-70.7" font-family="Inter" font-size="14.00" fill="#1a1a1a">[Leaf</text>
<text xml:space="preserve" text-anchor="start" x="329.25" y="-70.7" font-family="Inter" baseline-shift="sub" font-size="14.00" fill="#1a1a1a">3</text>
<text xml:space="preserve" text-anchor="start" x="336.75" y="-70.7" font-family="Inter" font-size="14.00" fill="#1a1a1a">, Leaf_4]</text>
</g>
<!-- Branch_2&#45;&gt;Leaf_3 -->
<g id="edge3" class="edge">
<title>Branch_2&#45;&gt;Leaf_3</title>
<path fill="none" stroke="#404040" d="M395.71,-84C395.71,-84 425.79,-84 425.79,-84"/>
<polygon fill="#404040" stroke="#404040" points="430.79,-84 425.79,-86.25 429.51,-84 425.79,-84 425.79,-84 425.79,-84 429.51,-84 425.79,-81.75 430.79,-84"/>
</g>
<!-- Branch_2&#45;&gt;Leaf_4 -->
<g id="edge4" class="edge">
<title>Branch_2&#45;&gt;Leaf_4</title>
<path fill="none" stroke="#404040" d="M318.5,-62.32C318.5,-44.44 318.5,-22 318.5,-22 318.5,-22 426.1,-22 426.1,-22"/>
<polygon fill="#404040" stroke="#404040" points="431.1,-22 426.1,-24.25 429.82,-22 426.1,-22 426.1,-22 426.1,-22 429.82,-22 426.1,-19.75 431.1,-22"/>
</g>
<!-- Root_0 -->
<g id="node7" class="node">
<title>Root_0</title>
<polygon fill="white" stroke="none" points="205.5,-137 0,-137 0,-93 205.5,-93 205.5,-137"/>
<polyline fill="none" stroke="#bfbfbf" points="3,-114 202.5,-114"/>
<text xml:space="preserve" text-anchor="start" x="80.25" y="-119.7" font-family="Inter" font-size="14.00" fill="#1a1a1a">Root_0</text>
<text xml:space="preserve" text-anchor="start" x="3" y="-100.7" font-family="Inter" font-size="14.00" fill="#1a1a1a">branches:</text>
<text xml:space="preserve" text-anchor="start" x="68.25" y="-100.7" font-family="Inter" font-size="14.00" fill="#1a1a1a"> </text>
<text xml:space="preserve" text-anchor="start" x="72" y="-101.7" font-family="Inter" font-size="14.00" fill="#1a1a1a">[Branch</text>
<text xml:space="preserve" text-anchor="start" x="123.75" y="-101.7" font-family="Inter" baseline-shift="sub" font-size="14.00" fill="#1a1a1a">1</text>
<text xml:space="preserve" text-anchor="start" x="128.25" y="-101.7" font-family="Inter" font-size="14.00" fill="#1a1a1a">, Branch_2]</text>
</g>
<!-- Root_0&#45;&gt;Branch_1 -->
<g id="edge5" class="edge">
<title>Root_0&#45;&gt;Branch_1</title>
<path fill="none" stroke="#404040" d="M205.37,-130.5C205.37,-130.5 236.64,-130.5 236.64,-130.5"/>
<polygon fill="#404040" stroke="#404040" points="241.64,-130.5 236.64,-132.75 240.36,-130.5 236.64,-130.5 236.64,-130.5 236.64,-130.5 240.36,-130.5 236.64,-128.25 241.64,-130.5"/>
</g>
<!-- Root_0&#45;&gt;Branch_2 -->
<g id="edge6" class="edge">
<title>Root_0&#45;&gt;Branch_2</title>
<path fill="none" stroke="#404040" d="M205.37,-99.5C205.37,-99.5 235.38,-99.5 235.38,-99.5"/>
<polygon fill="#404040" stroke="#404040" points="240.38,-99.5 235.38,-101.75 239.1,-99.5 235.38,-99.5 235.38,-99.5 235.38,-99.5 239.1,-99.5 235.38,-97.25 240.38,-99.5"/>
</g>
</g>
</svg>
