<?xml version="1.0" encoding="UTF-8" standalone="no"?>
<!DOCTYPE svg PUBLIC "-//W3C//DTD SVG 1.1//EN"
 "http://www.w3.org/Graphics/SVG/1.1/DTD/svg11.dtd">
<!-- Generated by graphviz version 13.1.0 (0)
 -->
<!-- Title: basic struct example Pages: 1 -->
<svg width="80pt" height="132pt"
 viewBox="0.00 0.00 80.00 132.00" xmlns="http://www.w3.org/2000/svg" xmlns:xlink="http://www.w3.org/1999/xlink">
<g id="graph0" class="graph" transform="scale(1 1) rotate(0) translate(4 128)">
<title>basic struct example</title>
<polygon fill="white" stroke="none" points="-4,4 -4,-128 76,-128 76,4 -4,4"/>
<!-- Foo -->
<g id="node1" class="node">
<title>Foo</title>
<polygon fill="none" stroke="black" points="72,-44 0,-44 0,0 72,0 72,-44"/>
<polyline fill="none" stroke="black" points="3,-21 69,-21"/>
<text xml:space="preserve" text-anchor="start" x="24" y="-26.7" font-family="Inter" font-size="14.00">Foo</text>
<text xml:space="preserve" text-anchor="start" x="3" y="-7.7" font-family="Inter" font-size="14.00">foo:</text>
<text xml:space="preserve" text-anchor="start" x="27.75" y="-7.7" font-family="Inter" font-size="14.00"> </text>
<text xml:space="preserve" text-anchor="start" x="31.5" y="-7.7" font-family="Inter" font-size="14.00">string</text>
</g>
<!-- Bar -->
<g id="node2" class="node">
<title>Bar</title>
<polygon fill="none" stroke="black" points="65.62,-124 6.38,-124 6.38,-80 65.62,-80 65.62,-124"/>
<polyline fill="none" stroke="black" points="9.38,-101 62.62,-101"/>
<text xml:space="preserve" text-anchor="start" x="25.12" y="-106.7" font-family="Inter" font-size="14.00">Bar</text>
<text xml:space="preserve" text-anchor="start" x="9.38" y="-87.7" font-family="Inter" font-size="14.00">bar:</text>
<text xml:space="preserve" text-anchor="start" x="34.88" y="-87.7" font-family="Inter" font-size="14.00"> </text>
<text xml:space="preserve" text-anchor="start" x="38.62" y="-87.7" font-family="Inter" font-size="14.00">Foo</text>
</g>
<!-- Bar&#45;&gt;Foo -->
<g id="edge1" class="edge">
<title>Bar&#45;&gt;Foo</title>
<path fill="none" stroke="black" d="M36,-79.69C36,-72.29 36,-63.82 36,-55.72"/>
<polygon fill="black" stroke="black" points="39.5,-55.8 36,-45.8 32.5,-55.8 39.5,-55.8"/>
</g>
</g>
</svg>
